<svg xmlns="http://www.w3.org/2000/svg" viewBox="0 0 64 64" width="64" height="64">
  <!-- Placeholder skellydocs logo: open book with skeleton key -->
  <g fill="none" stroke="#6ee7b7" stroke-width="2" stroke-linecap="round" stroke-linejoin="round">
    <!-- Book spine -->
    <path d="M32 12v44"/>
    <!-- Left page -->
    <path d="M32 12C28 8 18 6 8 8v40c10-2 20 0 24 4"/>
    <!-- Right page -->
    <path d="M32 12c4-4 14-6 24-4v40c-10-2-20 0-24 4"/>
    <!-- Left page lines -->
    <line x1="14" y1="18" x2="26" y2="18" opacity="0.5"/>
    <line x1="14" y1="24" x2="26" y2="24" opacity="0.5"/>
    <line x1="14" y1="30" x2="24" y2="30" opacity="0.5"/>
    <!-- Right page lines -->
    <line x1="38" y1="18" x2="50" y2="18" opacity="0.5"/>
    <line x1="38" y1="24" x2="50" y2="24" opacity="0.5"/>
    <line x1="38" y1="30" x2="48" y2="30" opacity="0.5"/>
    <!-- Small skeleton key icon on right page -->
    <circle cx="44" cy="38" r="3" fill="none"/>
    <line x1="44" y1="41" x2="44" y2="48"/>
    <line x1="44" y1="45" x2="46" y2="45"/>
    <line x1="44" y1="47" x2="47" y2="47"/>
  </g>
</svg>
