<svg xmlns="http://www.w3.org/2000/svg" viewBox="0 0 128 128" width="128" height="128">
  <!-- Skull -->
  <ellipse cx="64" cy="42" rx="28" ry="32" fill="#e2e8f0" stroke="#94a3b8" stroke-width="2"/>
  <!-- Eyes -->
  <ellipse cx="53" cy="38" rx="7" ry="8" fill="#1e293b"/>
  <ellipse cx="75" cy="38" rx="7" ry="8" fill="#1e293b"/>
  <!-- Nose -->
  <path d="M61 50 L64 56 L67 50" fill="none" stroke="#94a3b8" stroke-width="2" stroke-linecap="round"/>
  <!-- Jaw -->
  <path d="M44 58 Q64 72 84 58" fill="none" stroke="#94a3b8" stroke-width="2" stroke-linecap="round"/>
  <!-- Spine -->
  <rect x="60" y="74" width="8" height="10" rx="3" fill="#e2e8f0" stroke="#94a3b8" stroke-width="1.5"/>
  <rect x="60" y="88" width="8" height="10" rx="3" fill="#e2e8f0" stroke="#94a3b8" stroke-width="1.5"/>
  <rect x="60" y="102" width="8" height="10" rx="3" fill="#e2e8f0" stroke="#94a3b8" stroke-width="1.5"/>
  <!-- Ribs left -->
  <path d="M60 78 Q46 82 40 90" fill="none" stroke="#e2e8f0" stroke-width="3" stroke-linecap="round"/>
  <path d="M60 88 Q48 92 44 98" fill="none" stroke="#e2e8f0" stroke-width="3" stroke-linecap="round"/>
  <!-- Ribs right -->
  <path d="M68 78 Q82 82 88 90" fill="none" stroke="#e2e8f0" stroke-width="3" stroke-linecap="round"/>
  <path d="M68 88 Q80 92 84 98" fill="none" stroke="#e2e8f0" stroke-width="3" stroke-linecap="round"/>
</svg>
